<svg xmlns="http://www.w3.org/2000/svg" viewBox="0 0 256 256" fill="none">
  <defs>
    <linearGradient id="background" x1="24" y1="12" x2="232" y2="244" gradientUnits="userSpaceOnUse">
      <stop stop-color="#101D37" />
      <stop offset="1" stop-color="#070D19" />
    </linearGradient>
    <radialGradient id="glow" cx="0" cy="0" r="1" gradientTransform="translate(128 128) rotate(90) scale(104)" gradientUnits="userSpaceOnUse">
      <stop stop-color="#1456A8" stop-opacity=".34" />
      <stop offset="1" stop-color="#07101D" stop-opacity="0" />
    </radialGradient>
    <linearGradient id="bridge" x1="44" y1="86" x2="212" y2="170" gradientUnits="userSpaceOnUse">
      <stop stop-color="#34E6D0" />
      <stop offset=".52" stop-color="#38A8FF" />
      <stop offset="1" stop-color="#727BFF" />
    </linearGradient>
    <linearGradient id="node" x1="30" y1="154" x2="82" y2="214" gradientUnits="userSpaceOnUse">
      <stop stop-color="#173C78" />
      <stop offset="1" stop-color="#10192F" />
    </linearGradient>
    <linearGradient id="shield" x1="100" y1="48" x2="158" y2="128" gradientUnits="userSpaceOnUse">
      <stop stop-color="#193F79" />
      <stop offset="1" stop-color="#0C1830" />
    </linearGradient>
  </defs>
  <rect x="6" y="6" width="244" height="244" rx="60" fill="url(#background)" />
  <rect x="6" y="6" width="244" height="244" rx="60" fill="url(#glow)" />
  <path d="M55 172C61 111 89 79 128 79C167 79 195 111 201 172" stroke="url(#bridge)" stroke-width="13" stroke-linecap="round" />
  <path d="M68 155C77 116 98 96 128 96C158 96 179 116 188 155" stroke="#69DFFF" stroke-opacity=".5" stroke-width="3" stroke-linecap="round" stroke-dasharray="4 10" />
  <rect x="24" y="152" width="64" height="64" rx="19" fill="url(#node)" stroke="#3A92FF" stroke-width="3" />
  <rect x="168" y="152" width="64" height="64" rx="19" fill="url(#node)" stroke="#557DFF" stroke-width="3" />
  <path d="M47 186h18M191 186h18" stroke="#6EDDFB" stroke-width="4" stroke-linecap="round" />
  <circle cx="56" cy="174" r="7" fill="#47E4D0" />
  <circle cx="200" cy="174" r="7" fill="#8E9BFF" />
  <path d="M128 43 158 55v26c0 24-12 42-30 53-18-11-30-29-30-53V55l30-12Z" fill="url(#shield)" stroke="#73BFFF" stroke-width="3.5" stroke-linejoin="round" />
  <path d="m114 82 10 10 19-21" stroke="#52E9D0" stroke-width="6" stroke-linecap="round" stroke-linejoin="round" />
</svg>
